  0
SECTION
  2
HEADER
  9
$ACADVER
  1
AC1009
  9
$EXTMIN
 10
0.0
 20
0.0
 30
0.0
  9
$EXTMAX
 10
1000.0
 20
1000.0
 30
0.0
  9
$FILLMODE
 70
 0
  9
$SPLFRAME
 70
 1
  0
ENDSEC
  0
SECTION
  2
TABLES
  0
TABLE
  2
LAYER
 70
1
  0
LAYER
  2
0
 70
     0
 62
     7
  6
CONTINUOUS
  0
ENDTAB
  0
ENDSEC
  0
SECTION
  2
ENTITIES
  0
LINE
  8
0
 62
     0
 10
0.529167
 20
0.176389
 30
0.0
 11
0.529167
 21
150.176
 31
0.0
  0
LINE
  8
0
 62
     0
 10
0.529167
 20
150.176
 30
0.0
 11
0.529167
 21
150.176
 31
0.0
  0
LINE
  8
0
 62
     0
 10
0.529167
 20
150.176
 30
0.0
 11
0.54846
 21
150.176
 31
0.0
  0
LINE
  8
0
 62
     0
 10
0.54846
 20
150.176
 30
0.0
 11
0.684886
 21
150.176
 31
0.0
  0
LINE
  8
0
 62
     0
 10
0.684886
 20
150.176
 30
0.0
 11
1.05558
 21
150.176
 31
0.0
  0
LINE
  8
0
 62
     0
 10
1.05558
 20
150.176
 30
0.0
 11
1.77905
 21
150.176
 31
0.0
  0
LINE
  8
0
 62
     0
 10
1.77905
 20
150.176
 30
0.0
 11
2.96967
 21
150.176
 31
0.0
  0
LINE
  8
0
 62
     0
 10
2.96967
 20
150.176
 30
0.0
 11
4.74733
 21
150.176
 31
0.0
  0
LINE
  8
0
 62
     0
 10
4.74733
 20
150.176
 30
0.0
 11
7.22782
 21
150.176
 31
0.0
  0
LINE
  8
0
 62
     0
 10
7.22782
 20
150.176
 30
0.0
 11
9.70414
 21
150.176
 31
0.0
  0
LINE
  8
0
 62
     0
 10
9.70414
 20
150.176
 30
0.0
 11
10.5296
 21
150.176
 31
0.0
  0
LINE
  8
0
 62
     0
 10
10.5296
 20
150.176
 30
0.0
 11
10.5296
 21
150.176
 31
0.0
  0
LINE
  8
0
 62
     0
 10
10.5296
 20
150.176
 30
0.0
 11
10.9582
 21
150.176
 31
0.0
  0
LINE
  8
0
 62
     0
 10
10.9582
 20
150.176
 30
0.0
 11
12.0909
 21
150.176
 31
0.0
  0
LINE
  8
0
 62
     0
 10
12.0909
 20
150.176
 30
0.0
 11
13.6922
 21
150.176
 31
0.0
  0
LINE
  8
0
 62
     0
 10
13.6922
 20
150.176
 30
0.0
 11
15.5291
 21
150.176
 31
0.0
  0
LINE
  8
0
 62
     0
 10
15.5291
 20
150.176
 30
0.0
 11
17.3647
 21
150.176
 31
0.0
  0
LINE
  8
0
 62
     0
 10
17.3647
 20
150.176
 30
0.0
 11
18.9659
 21
150.176
 31
0.0
  0
LINE
  8
0
 62
     0
 10
18.9659
 20
150.176
 30
0.0
 11
20.0987
 21
150.176
 31
0.0
  0
LINE
  8
0
 62
     0
 10
20.0987
 20
150.176
 30
0.0
 11
20.5286
 21
150.176
 31
0.0
  0
LINE
  8
0
 62
     0
 10
20.5286
 20
150.176
 30
0.0
 11
20.5286
 21
150.176
 31
0.0
  0
LINE
  8
0
 62
     0
 10
20.5286
 20
150.176
 30
0.0
 11
20.5286
 21
146.997
 31
0.0
  0
LINE
  8
0
 62
     0
 10
20.5286
 20
146.997
 30
0.0
 11
20.5286
 21
137.458
 31
0.0
  0
LINE
  8
0
 62
     0
 10
20.5286
 20
137.458
 30
0.0
 11
20.5328
 21
125.534
 31
0.0
  0
LINE
  8
0
 62
     0
 10
20.5328
 20
125.534
 30
0.0
 11
20.5466
 21
114.377
 31
0.0
  0
LINE
  8
0
 62
     0
 10
20.5466
 20
114.377
 30
0.0
 11
20.5714
 21
103.966
 31
0.0
  0
LINE
  8
0
 62
     0
 10
20.5714
 20
103.966
 30
0.0
 11
20.6113
 21
94.2717
 31
0.0
  0
LINE
  8
0
 62
     0
 10
20.6113
 20
94.2717
 30
0.0
 11
20.6733
 21
85.2703
 31
0.0
  0
LINE
  8
0
 62
     0
 10
20.6733
 20
85.2703
 30
0.0
 11
20.7588
 21
76.9345
 31
0.0
  0
LINE
  8
0
 62
     0
 10
20.7588
 20
76.9345
 30
0.0
 11
20.8718
 21
69.2397
 31
0.0
  0
LINE
  8
0
 62
     0
 10
20.8718
 20
69.2397
 30
0.0
 11
21.0178
 21
62.1605
 31
0.0
  0
LINE
  8
0
 62
     0
 10
21.0178
 20
62.1605
 30
0.0
 11
21.1998
 21
55.6701
 31
0.0
  0
LINE
  8
0
 62
     0
 10
21.1998
 20
55.6701
 30
0.0
 11
21.4216
 21
49.7445
 31
0.0
  0
LINE
  8
0
 62
     0
 10
21.4216
 20
49.7445
 30
0.0
 11
21.6876
 21
44.3562
 31
0.0
  0
LINE
  8
0
 62
     0
 10
21.6876
 20
44.3562
 30
0.0
 11
22.0031
 21
39.4822
 31
0.0
  0
LINE
  8
0
 62
     0
 10
22.0031
 20
39.4822
 30
0.0
 11
22.3697
 21
35.0945
 31
0.0
  0
LINE
  8
0
 62
     0
 10
22.3697
 20
35.0945
 30
0.0
 11
22.7941
 21
31.1685
 31
0.0
  0
LINE
  8
0
 62
     0
 10
22.7941
 20
31.1685
 30
0.0
 11
23.2778
 21
27.6779
 31
0.0
  0
LINE
  8
0
 62
     0
 10
23.2778
 20
27.6779
 30
0.0
 11
23.8263
 21
24.5966
 31
0.0
  0
LINE
  8
0
 62
     0
 10
23.8263
 20
24.5966
 30
0.0
 11
24.4437
 21
21.9012
 31
0.0
  0
LINE
  8
0
 62
     0
 10
24.4437
 20
21.9012
 30
0.0
 11
25.1327
 21
19.564
 31
0.0
  0
LINE
  8
0
 62
     0
 10
25.1327
 20
19.564
 30
0.0
 11
25.8989
 21
17.5603
 31
0.0
  0
LINE
  8
0
 62
     0
 10
25.8989
 20
17.5603
 30
0.0
 11
26.7463
 21
15.864
 31
0.0
  0
LINE
  8
0
 62
     0
 10
26.7463
 20
15.864
 30
0.0
 11
27.6765
 21
14.4501
 31
0.0
  0
LINE
  8
0
 62
     0
 10
27.6765
 20
14.4501
 30
0.0
 11
28.6963
 21
13.2926
 31
0.0
  0
LINE
  8
0
 62
     0
 10
28.6963
 20
13.2926
 30
0.0
 11
29.8097
 21
12.3651
 31
0.0
  0
LINE
  8
0
 62
     0
 10
29.8097
 20
12.3651
 30
0.0
 11
31.0183
 21
11.643
 31
0.0
  0
LINE
  8
0
 62
     0
 10
31.0183
 20
11.643
 30
0.0
 11
32.3288
 21
11.1001
 31
0.0
  0
LINE
  8
0
 62
     0
 10
32.3288
 20
11.1001
 30
0.0
 11
33.7426
 21
10.7115
 31
0.0
  0
LINE
  8
0
 62
     0
 10
33.7426
 20
10.7115
 30
0.0
 11
35.2668
 21
10.451
 31
0.0
  0
LINE
  8
0
 62
     0
 10
35.2668
 20
10.451
 30
0.0
 11
36.9023
 21
10.2926
 31
0.0
  0
LINE
  8
0
 62
     0
 10
36.9023
 20
10.2926
 30
0.0
 11
38.6553
 21
10.2113
 31
0.0
  0
LINE
  8
0
 62
     0
 10
38.6553
 20
10.2113
 30
0.0
 11
40.5296
 21
10.1823
 31
0.0
  0
LINE
  8
0
 62
     0
 10
40.5296
 20
10.1823
 30
0.0
 11
42.0289
 21
10.1768
 31
0.0
  0
LINE
  8
0
 62
     0
 10
42.0289
 20
10.1768
 30
0.0
 11
42.5291
 21
10.1768
 31
0.0
  0
LINE
  8
0
 62
     0
 10
42.5291
 20
10.1768
 30
0.0
 11
42.5291
 21
10.1768
 31
0.0
  0
LINE
  8
0
 62
     0
 10
42.5291
 20
10.1768
 30
0.0
 11
42.5291
 21
9.74824
 31
0.0
  0
LINE
  8
0
 62
     0
 10
42.5291
 20
9.74824
 30
0.0
 11
42.5291
 21
8.6155
 31
0.0
  0
LINE
  8
0
 62
     0
 10
42.5291
 20
8.6155
 30
0.0
 11
42.5291
 21
7.01283
 31
0.0
  0
LINE
  8
0
 62
     0
 10
42.5291
 20
7.01283
 30
0.0
 11
42.5291
 21
5.1773
 31
0.0
  0
LINE
  8
0
 62
     0
 10
42.5291
 20
5.1773
 30
0.0
 11
42.5291
 21
3.34174
 31
0.0
  0
LINE
  8
0
 62
     0
 10
42.5291
 20
3.34174
 30
0.0
 11
42.5291
 21
1.73909
 31
0.0
  0
LINE
  8
0
 62
     0
 10
42.5291
 20
1.73909
 30
0.0
 11
42.5291
 21
0.606337
 31
0.0
  0
LINE
  8
0
 62
     0
 10
42.5291
 20
0.606337
 30
0.0
 11
42.5291
 21
0.176389
 31
0.0
  0
LINE
  8
0
 62
     0
 10
42.5291
 20
0.176389
 30
0.0
 11
42.5291
 21
0.176389
 31
0.0
  0
LINE
  8
0
 62
     0
 10
42.5291
 20
0.176389
 30
0.0
 11
0.529167
 21
0.176389
 31
0.0
  0
ENDSEC
  0
EOF
